<svg width="720" height="520" viewBox="0 0 720 520" fill="none" xmlns="http://www.w3.org/2000/svg">
  <rect width="720" height="520" rx="28" fill="#F8FAFC"/>
  <rect x="28" y="32" width="664" height="456" rx="24" fill="#FFFFFF" stroke="#D9E2EC"/>
  <rect x="54" y="58" width="288" height="188" rx="22" fill="#0F172A"/>
  <rect x="82" y="88" width="138" height="14" rx="7" fill="#CBD5E1" fill-opacity="0.45"/>
  <rect x="82" y="128" width="46" height="88" rx="12" fill="#0F766E"/>
  <rect x="142" y="154" width="46" height="62" rx="12" fill="#1D4ED8"/>
  <rect x="202" y="112" width="46" height="104" rx="12" fill="#F59E0B"/>
  <rect x="262" y="172" width="46" height="44" rx="12" fill="#DC2626"/>
  <rect x="372" y="58" width="292" height="188" rx="22" fill="#FFFFFF" stroke="#E2E8F0"/>
  <rect x="398" y="86" width="136" height="12" rx="6" fill="#334155"/>
  <rect x="398" y="126" width="48" height="48" rx="16" fill="#0F766E" fill-opacity="0.14"/>
  <rect x="458" y="126" width="48" height="48" rx="16" fill="#1D4ED8" fill-opacity="0.14"/>
  <rect x="518" y="126" width="48" height="48" rx="16" fill="#F59E0B" fill-opacity="0.14"/>
  <rect x="578" y="126" width="48" height="48" rx="16" fill="#DC2626" fill-opacity="0.12"/>
  <rect x="398" y="194" width="228" height="24" rx="12" fill="#E2E8F0"/>
  <rect x="54" y="274" width="610" height="186" rx="22" fill="#FFFFFF" stroke="#E2E8F0"/>
  <rect x="80" y="302" width="132" height="12" rx="6" fill="#334155"/>
  <rect x="80" y="340" width="74" height="30" rx="12" fill="#F8FAFC" stroke="#CBD5E1"/>
  <rect x="170" y="340" width="74" height="30" rx="12" fill="#F8FAFC" stroke="#CBD5E1"/>
  <rect x="260" y="340" width="74" height="30" rx="12" fill="#F8FAFC" stroke="#CBD5E1"/>
  <rect x="80" y="390" width="80" height="42" rx="14" fill="#FEE2E2"/>
  <rect x="172" y="390" width="80" height="42" rx="14" fill="#FDE68A"/>
  <rect x="264" y="390" width="80" height="42" rx="14" fill="#BFDBFE"/>
  <rect x="356" y="390" width="80" height="42" rx="14" fill="#A7F3D0"/>
  <rect x="448" y="390" width="80" height="42" rx="14" fill="#FDE68A"/>
  <rect x="540" y="390" width="80" height="42" rx="14" fill="#FCA5A5"/>
</svg>
