<svg width="860" height="560" viewBox="0 0 860 560" fill="none" xmlns="http://www.w3.org/2000/svg">
  <rect width="860" height="560" rx="28" fill="#F7FAFC"/>
  <rect x="28" y="28" width="804" height="504" rx="24" fill="#FFFFFF" stroke="#D9E2EC"/>
  <rect x="56" y="56" width="204" height="448" rx="18" fill="#0F172A"/>
  <rect x="82" y="98" width="152" height="14" rx="7" fill="#CBD5E1" fill-opacity="0.4"/>
  <rect x="82" y="128" width="118" height="44" rx="16" fill="#F59E0B" fill-opacity="0.2"/>
  <rect x="82" y="190" width="152" height="82" rx="18" fill="#FFFFFF" fill-opacity="0.09"/>
  <rect x="82" y="288" width="152" height="82" rx="18" fill="#FFFFFF" fill-opacity="0.09"/>
  <rect x="82" y="386" width="152" height="82" rx="18" fill="#FFFFFF" fill-opacity="0.09"/>
  <rect x="286" y="56" width="518" height="82" rx="18" fill="#F8FAFC" stroke="#E2E8F0"/>
  <rect x="312" y="84" width="188" height="14" rx="7" fill="#0F172A"/>
  <rect x="526" y="80" width="110" height="22" rx="11" fill="#0F766E" fill-opacity="0.15"/>
  <rect x="650" y="80" width="128" height="22" rx="11" fill="#D97706" fill-opacity="0.16"/>
  <rect x="286" y="164" width="326" height="202" rx="22" fill="#FFFFFF" stroke="#E2E8F0"/>
  <rect x="312" y="190" width="140" height="12" rx="6" fill="#334155"/>
  <rect x="312" y="330" width="34" height="10" rx="5" fill="#94A3B8"/>
  <rect x="368" y="294" width="34" height="46" rx="10" fill="#F59E0B"/>
  <rect x="424" y="248" width="34" height="92" rx="10" fill="#0F766E"/>
  <rect x="480" y="226" width="34" height="114" rx="10" fill="#1D4ED8"/>
  <rect x="536" y="210" width="34" height="130" rx="10" fill="#111827"/>
  <rect x="592" y="264" width="34" height="76" rx="10" fill="#DC2626" fill-opacity="0.8"/>
  <rect x="638" y="164" width="166" height="202" rx="22" fill="#FFFFFF" stroke="#E2E8F0"/>
  <rect x="664" y="190" width="108" height="12" rx="6" fill="#334155"/>
  <rect x="664" y="226" width="114" height="28" rx="14" fill="#0F766E" fill-opacity="0.14"/>
  <rect x="664" y="268" width="114" height="28" rx="14" fill="#F59E0B" fill-opacity="0.14"/>
  <rect x="664" y="310" width="114" height="28" rx="14" fill="#DC2626" fill-opacity="0.12"/>
  <rect x="286" y="390" width="518" height="114" rx="22" fill="#FFFFFF" stroke="#E2E8F0"/>
  <rect x="312" y="418" width="118" height="12" rx="6" fill="#334155"/>
  <rect x="312" y="450" width="466" height="12" rx="6" fill="#E2E8F0"/>
  <rect x="312" y="450" width="316" height="12" rx="6" fill="#1D4ED8"/>
  <rect x="312" y="474" width="466" height="12" rx="6" fill="#E2E8F0"/>
  <rect x="312" y="474" width="238" height="12" rx="6" fill="#F59E0B"/>
</svg>
